<?xml version="1.0" standalone="no"?>
<!DOCTYPE svg PUBLIC "-//W3C//DTD SVG 20010904//EN"
 "http://www.w3.org/TR/2001/REC-SVG-20010904/DTD/svg10.dtd">
<svg version="1.0" xmlns="http://www.w3.org/2000/svg"
 width="960.000000pt" height="480.000000pt" viewBox="0 0 960.000000 480.000000"
 preserveAspectRatio="xMidYMid meet">

<g transform="translate(0.000000,480.000000) scale(0.100000,-0.100000)"
fill="#000000" stroke="none">
<path d="M616 4431 c-20 -22 -18 -50 4 -62 16 -10 1344 -257 1680 -313 113
-19 269 -43 348 -52 94 -12 142 -22 142 -30 0 -7 -29 -138 -65 -291 -206 -874
-486 -1876 -756 -2700 -38 -116 -69 -218 -69 -226 0 -35 -746 121 -1215 253
-235 66 -583 179 -591 191 -3 5 119 701 272 1546 195 1085 274 1541 267 1552
-6 9 -22 17 -36 19 -20 3 -29 -2 -37 -20 -18 -42 -559 -3072 -556 -3116 1 -25
8 -47 17 -52 51 -33 637 -209 959 -290 395 -99 968 -207 1002 -189 24 13 33
48 16 65 -11 11 -3 46 55 224 l68 210 30 -16 c63 -32 115 -29 259 15 74 23
155 45 180 48 50 6 753 -12 1065 -27 417 -21 830 -49 1410 -96 245 -20 377
-36 630 -79 649 -110 1108 -164 1730 -205 594 -39 952 -89 1215 -170 83 -25
181 -26 236 -1 90 41 158 146 170 264 6 64 7 65 46 83 53 24 113 94 135 157
11 32 18 81 18 128 0 65 -5 85 -33 142 -18 37 -37 67 -43 67 -5 0 -9 5 -9 10
0 6 13 10 28 10 43 0 125 46 159 88 58 72 76 120 81 212 3 78 1 89 -26 143
l-29 57 33 21 c42 26 88 84 116 146 31 68 31 181 1 242 l-22 44 21 41 c15 28
23 66 26 122 5 92 -5 130 -49 197 l-30 45 30 44 c62 88 74 208 30 307 -17 39
-18 46 -5 60 8 9 27 43 43 76 21 47 27 75 27 130 1 131 -66 221 -190 258 -103
31 -1691 419 -1929 471 -602 132 -1097 209 -1535 236 -354 22 -1473 2 -2005
-35 -517 -37 -1115 -114 -1195 -155 -41 -21 -95 -77 -105 -109 -4 -15 -15 -21
-34 -21 -48 0 -529 84 -1254 220 -384 71 -701 130 -706 130 -4 0 -16 -9 -25
-19z m5614 -266 c134 -22 255 -61 385 -125 483 -235 779 -689 802 -1231 18
-414 -124 -793 -408 -1093 -284 -300 -644 -471 -1070 -507 -208 -18 -272 0
-311 87 -34 79 -8 163 62 199 19 10 59 15 118 15 l90 0 7 147 c9 177 0 752
-15 948 -16 215 -48 509 -75 699 -28 191 -84 505 -94 523 -4 8 -39 1 -121 -23
-188 -56 -214 -56 -275 -3 -67 59 -68 153 -3 216 62 61 360 143 580 162 116
10 204 6 328 -14z m-1464 -151 c77 -37 108 -146 62 -214 -43 -64 -57 -67 -544
-128 l-450 -57 12 -30 c12 -30 55 -522 75 -860 6 -102 9 -408 7 -705 -3 -504
-4 -526 -23 -558 -25 -42 -81 -72 -135 -72 -47 0 -85 17 -120 55 l-25 27 -1
591 c0 612 -3 663 -54 1259 -11 125 -17 234 -14 243 4 9 1 15 -7 15 -8 -1
-185 -23 -394 -49 -209 -27 -381 -48 -382 -47 -2 2 14 73 34 158 l37 156 100
12 c56 7 463 59 906 115 443 57 822 103 843 104 22 1 54 -6 73 -15z m238 -824
c129 -33 208 -80 321 -194 128 -129 230 -279 269 -396 24 -72 29 -106 34 -226
15 -428 -132 -731 -424 -878 -137 -68 -312 -103 -449 -91 -363 33 -615 230
-707 550 -20 70 -23 102 -23 255 0 157 3 186 28 283 33 131 93 279 148 364 23
34 74 93 114 131 112 107 218 162 375 196 146 31 213 32 314 6z m3236 -441
c278 -27 540 -192 639 -403 43 -92 54 -157 49 -292 -16 -396 -252 -814 -540
-957 -134 -67 -196 -81 -348 -74 -216 9 -400 76 -509 184 -98 99 -172 285
-202 512 -17 129 -6 377 21 471 86 302 329 528 600 559 95 10 181 10 290 0z"/>
<path d="M6030 3870 c0 -3 14 -79 30 -170 106 -575 153 -1108 154 -1738 l0
-393 26 6 c105 26 287 121 408 212 204 155 366 405 433 670 121 472 -46 940
-434 1217 -87 62 -254 140 -354 166 -79 20 -263 42 -263 30z"/>
<path d="M4762 2889 c-87 -11 -162 -48 -232 -115 -78 -74 -116 -135 -151 -242
-76 -226 -77 -435 -3 -587 85 -174 338 -273 562 -220 260 62 382 250 383 593
0 138 -13 194 -67 286 -47 81 -164 212 -218 245 -28 18 -168 53 -198 50 -7 -1
-41 -5 -76 -10z"/>
<path d="M7974 2440 c-300 -42 -434 -443 -298 -890 33 -107 54 -137 118 -166
160 -72 321 -82 443 -25 103 49 198 151 262 283 61 125 97 233 117 353 18 102
13 169 -17 232 -39 81 -161 165 -286 198 -71 19 -256 27 -339 15z"/>
<path d="M908 4179 c-10 -5 -18 -17 -18 -26 0 -8 -16 -67 -36 -129 -39 -126
-40 -154 -7 -169 13 -5 23 -20 25 -34 2 -20 13 -29 52 -44 97 -36 298 -39 332
-5 11 10 22 50 30 104 9 62 24 110 48 160 41 82 42 87 20 108 -12 13 -39 16
-132 16 -102 0 -173 7 -272 25 -14 3 -33 0 -42 -6z m230 -106 c88 -5 103 -8
99 -22 -17 -61 -37 -142 -42 -173 -5 -33 -9 -37 -44 -43 -59 -10 -255 29 -248
50 2 5 17 54 33 108 l29 99 35 -6 c19 -4 81 -9 138 -13z"/>
<path d="M1483 4001 c-28 -18 -44 -93 -23 -106 6 -3 10 -24 10 -46 0 -89 101
-130 183 -75 31 21 37 23 48 10 21 -25 66 -44 104 -44 19 0 35 -4 35 -8 0 -5
17 -18 39 -30 40 -23 105 -29 131 -12 11 7 24 -1 53 -30 32 -34 44 -40 80 -40
24 0 48 5 55 12 8 8 16 5 31 -13 19 -23 24 -24 176 -27 167 -4 185 1 185 44 0
36 -29 44 -169 44 -126 0 -130 1 -149 25 -31 39 -64 47 -104 25 l-35 -18 -37
44 c-41 49 -63 54 -105 23 -37 -28 -65 -19 -97 32 -26 42 -42 47 -77 24 -29
-19 -43 -9 -76 51 -35 66 -60 69 -99 12 -17 -25 -38 -50 -47 -58 -15 -12 -19
-12 -30 4 -8 10 -13 39 -13 65 1 25 -4 56 -10 67 -12 23 -43 36 -59 25z"/>
<path d="M762 3608 c-7 -7 -12 -19 -12 -27 0 -8 -7 -23 -16 -32 -9 -10 -41
-114 -71 -231 -29 -117 -56 -223 -60 -236 -8 -31 14 -53 51 -51 17 1 93 -21
169 -49 144 -55 168 -60 184 -39 44 55 183 549 167 591 -8 20 -12 21 -203 56
-193 34 -193 34 -209 18z m198 -104 c58 -9 109 -20 113 -24 14 -12 -98 -416
-123 -443 -4 -4 -58 12 -121 36 -94 37 -113 48 -111 63 2 11 21 95 43 187 22
93 41 178 42 189 1 15 7 19 27 15 14 -3 72 -13 130 -23z"/>
<path d="M1272 3298 c-17 -17 -15 -39 10 -105 29 -79 83 -133 132 -133 41 0
69 12 103 42 l22 20 37 -28 c34 -26 46 -29 132 -33 90 -3 97 -5 155 -42 52
-34 68 -39 117 -39 32 0 77 -7 101 -15 24 -9 89 -20 144 -25 55 -6 121 -17
147 -26 36 -11 52 -13 67 -4 23 12 28 52 9 68 -20 16 -124 40 -218 51 -47 5
-104 17 -128 25 -24 9 -68 14 -101 13 -52 -2 -64 2 -104 31 -75 53 -109 64
-164 52 -62 -14 -78 -9 -141 45 -30 25 -58 45 -63 45 -9 0 -29 -18 -66 -63
-41 -49 -74 -30 -104 58 -23 68 -57 93 -87 63z"/>
<path d="M537 2758 c-19 -20 -27 -37 -23 -51 3 -11 -8 -71 -25 -134 -16 -63
-32 -151 -35 -196 -6 -75 -4 -85 18 -117 33 -49 78 -67 229 -90 180 -27 224
-27 244 4 21 31 66 413 55 462 -16 71 -55 89 -230 107 -103 11 -134 17 -142
30 -15 27 -59 19 -91 -15z m223 -103 c151 -17 165 -24 156 -85 -3 -19 -13
-102 -22 -184 l-17 -149 -67 7 c-121 11 -231 34 -252 53 -18 16 -20 26 -15 88
6 62 49 254 63 277 6 10 -6 11 154 -7z"/>
<path d="M1146 2501 c-38 -42 -10 -147 48 -182 35 -21 102 -25 141 -7 21 10
29 8 48 -9 50 -46 121 -59 166 -31 17 11 23 9 44 -10 26 -24 71 -29 112 -10
23 10 28 9 41 -11 24 -34 53 -41 97 -24 35 14 38 14 55 -6 12 -15 34 -24 72
-30 38 -5 69 -17 99 -39 54 -39 110 -56 144 -43 55 21 41 75 -22 84 -24 3 -57
18 -79 36 -46 36 -82 51 -122 51 -19 0 -33 8 -44 25 -18 27 -70 34 -107 14
-17 -9 -25 -6 -44 15 -26 28 -67 34 -108 15 -20 -9 -30 -6 -62 15 -44 30 -45
30 -92 11 -54 -23 -66 -19 -115 35 -25 28 -51 50 -57 50 -6 0 -23 -13 -38 -30
-47 -54 -116 -33 -95 29 20 57 -42 96 -82 52z"/>
<path d="M480 1912 c-26 -24 -37 -57 -95 -285 -37 -143 -63 -267 -60 -277 7
-23 51 -38 66 -23 7 7 32 2 75 -13 88 -32 197 -56 262 -58 75 -1 96 24 111
136 39 298 58 495 50 510 -9 17 -54 22 -277 32 -101 4 -104 4 -132 -22z m312
-80 c3 -4 -8 -116 -25 -249 -36 -281 -17 -257 -168 -219 -110 28 -169 51 -169
66 0 16 89 372 99 395 8 19 16 20 132 17 68 -2 127 -7 131 -10z"/>
<path d="M1080 1635 c-9 -10 -10 -32 -5 -71 15 -126 53 -194 106 -194 31 0 85
40 94 71 6 19 8 19 25 4 25 -23 87 -44 131 -45 19 0 59 12 88 26 l52 26 28
-26 c31 -30 68 -33 112 -11 24 13 33 13 52 3 28 -15 128 -19 145 -6 18 15 15
52 -5 70 -10 9 -36 18 -58 21 -22 2 -54 10 -71 17 -28 12 -36 11 -74 -9 l-42
-22 -24 26 c-31 34 -81 33 -140 -1 -59 -35 -103 -28 -154 21 -20 19 -45 35
-56 35 -29 0 -59 -25 -74 -60 -7 -16 -16 -30 -20 -30 -9 0 -30 87 -30 123 0
44 -53 64 -80 32z"/>
</g>
</svg>
